<mxfile host="app.diagrams.net" agent="Mozilla/5.0 (X11; Linux x86_64; rv:128.0) Gecko/20100101 Firefox/128.0" version="26.0.16">
  <diagram name="Page-1" id="wnDVQPhdN0yrqGdEhT5-">
    <mxGraphModel dx="1130" dy="626" grid="1" gridSize="10" guides="1" tooltips="1" connect="1" arrows="1" fold="1" page="1" pageScale="1" pageWidth="850" pageHeight="1100" background="#ffffff" math="0" shadow="0">
      <root>
        <mxCell id="0" />
        <mxCell id="1" parent="0" />
        <mxCell id="FzjDU5e3YEK2CfJTqNCw-357" value="End User&#xa;Data Entry Personnel" style="rounded=1;whiteSpace=wrap;arcSize=50;strokeWidth=2;" parent="1" vertex="1">
          <mxGeometry x="618" y="460" width="183" height="51" as="geometry" />
        </mxCell>
        <mxCell id="FzjDU5e3YEK2CfJTqNCw-358" value="Level 1 Moderator&#xa;Unit Level" style="rounded=1;whiteSpace=wrap;arcSize=50;strokeWidth=2;" parent="1" vertex="1">
          <mxGeometry x="901" y="460" width="199" height="51" as="geometry" />
        </mxCell>
        <mxCell id="FzjDU5e3YEK2CfJTqNCw-359" value="Level 2 Moderator&#xa;District Level" style="rounded=1;whiteSpace=wrap;arcSize=50;strokeWidth=2;" parent="1" vertex="1">
          <mxGeometry x="1217" y="1134" width="219" height="51" as="geometry" />
        </mxCell>
        <mxCell id="FzjDU5e3YEK2CfJTqNCw-360" value="Level 3 Moderator&#xa;Region Level" style="rounded=1;whiteSpace=wrap;arcSize=50;strokeWidth=2;" parent="1" vertex="1">
          <mxGeometry x="1652" y="1134" width="221" height="51" as="geometry" />
        </mxCell>
        <mxCell id="FzjDU5e3YEK2CfJTqNCw-361" value="Level 4 Moderator&#xa;HQ Level" style="rounded=1;whiteSpace=wrap;arcSize=50;strokeWidth=2;" parent="1" vertex="1">
          <mxGeometry x="1923" y="1134" width="194" height="51" as="geometry" />
        </mxCell>
        <mxCell id="FzjDU5e3YEK2CfJTqNCw-362" value="License Branch" style="rounded=1;whiteSpace=wrap;arcSize=50;strokeWidth=2;" parent="1" vertex="1">
          <mxGeometry x="1009" y="1143" width="134" height="33" as="geometry" />
        </mxCell>
        <mxCell id="FzjDU5e3YEK2CfJTqNCw-363" value="Store Branch" style="rounded=1;whiteSpace=wrap;arcSize=50;strokeWidth=2;" parent="1" vertex="1">
          <mxGeometry x="1490" y="1120" width="117" height="33" as="geometry" />
        </mxCell>
        <mxCell id="FzjDU5e3YEK2CfJTqNCw-364" value="Establishment Branch" style="rounded=1;whiteSpace=wrap;arcSize=50;strokeWidth=2;" parent="1" vertex="1">
          <mxGeometry x="2167" y="1143" width="179" height="33" as="geometry" />
        </mxCell>
        <mxCell id="FzjDU5e3YEK2CfJTqNCw-365" value="System Administrator" style="rounded=1;whiteSpace=wrap;arcSize=50;strokeWidth=2;" parent="1" vertex="1">
          <mxGeometry x="2688" y="1143" width="175" height="33" as="geometry" />
        </mxCell>
        <mxCell id="FzjDU5e3YEK2CfJTqNCw-366" value="Login with Sevarth ID" style="whiteSpace=wrap;strokeWidth=2;" parent="1" vertex="1">
          <mxGeometry x="939" y="1235" width="212" height="48" as="geometry" />
        </mxCell>
        <mxCell id="FzjDU5e3YEK2CfJTqNCw-367" value="Manage Equipment" style="whiteSpace=wrap;strokeWidth=2;" parent="1" vertex="1">
          <mxGeometry x="250" y="561" width="199" height="48" as="geometry" />
        </mxCell>
        <mxCell id="FzjDU5e3YEK2CfJTqNCw-368" value="Manage Personnel" style="whiteSpace=wrap;strokeWidth=2;" parent="1" vertex="1">
          <mxGeometry x="506" y="561" width="194" height="48" as="geometry" />
        </mxCell>
        <mxCell id="FzjDU5e3YEK2CfJTqNCw-369" value="Manage Units" style="whiteSpace=wrap;strokeWidth=2;" parent="1" vertex="1">
          <mxGeometry x="750" y="561" width="159" height="48" as="geometry" />
        </mxCell>
        <mxCell id="FzjDU5e3YEK2CfJTqNCw-370" value="Generate Reports" style="whiteSpace=wrap;strokeWidth=2;" parent="1" vertex="1">
          <mxGeometry x="1691" y="561" width="187" height="48" as="geometry" />
        </mxCell>
        <mxCell id="FzjDU5e3YEK2CfJTqNCw-371" value="Apply E-Signature" style="whiteSpace=wrap;strokeWidth=2;" parent="1" vertex="1">
          <mxGeometry x="1690" y="681" width="189" height="48" as="geometry" />
        </mxCell>
        <mxCell id="FzjDU5e3YEK2CfJTqNCw-372" value="Verify OTP" style="whiteSpace=wrap;strokeWidth=2;" parent="1" vertex="1">
          <mxGeometry x="1716" y="801" width="137" height="48" as="geometry" />
        </mxCell>
        <mxCell id="FzjDU5e3YEK2CfJTqNCw-373" value="Submit Report" style="whiteSpace=wrap;strokeWidth=2;" parent="1" vertex="1">
          <mxGeometry x="1704" y="921" width="162" height="48" as="geometry" />
        </mxCell>
        <mxCell id="FzjDU5e3YEK2CfJTqNCw-374" value="Forward Reports to Next Level" style="whiteSpace=wrap;strokeWidth=2;" parent="1" vertex="1">
          <mxGeometry x="1668" y="1019" width="234" height="66" as="geometry" />
        </mxCell>
        <mxCell id="FzjDU5e3YEK2CfJTqNCw-375" value="Verify Equipment" style="whiteSpace=wrap;strokeWidth=2;" parent="1" vertex="1">
          <mxGeometry x="1474" y="1235" width="181" height="48" as="geometry" />
        </mxCell>
        <mxCell id="FzjDU5e3YEK2CfJTqNCw-376" value="Verify Personnel" style="whiteSpace=wrap;strokeWidth=2;" parent="1" vertex="1">
          <mxGeometry x="2333" y="1235" width="177" height="48" as="geometry" />
        </mxCell>
        <mxCell id="FzjDU5e3YEK2CfJTqNCw-377" value="Manage Users" style="whiteSpace=wrap;strokeWidth=2;" parent="1" vertex="1">
          <mxGeometry x="2559" y="1235" width="164" height="48" as="geometry" />
        </mxCell>
        <mxCell id="FzjDU5e3YEK2CfJTqNCw-378" value="Configure System" style="whiteSpace=wrap;strokeWidth=2;" parent="1" vertex="1">
          <mxGeometry x="2773" y="1235" width="187" height="48" as="geometry" />
        </mxCell>
        <mxCell id="FzjDU5e3YEK2CfJTqNCw-379" value="View Audit Logs" style="whiteSpace=wrap;strokeWidth=2;" parent="1" vertex="1">
          <mxGeometry x="3010" y="1235" width="174" height="48" as="geometry" />
        </mxCell>
        <mxCell id="FzjDU5e3YEK2CfJTqNCw-380" value="" style="curved=1;startArrow=none;endArrow=block;exitX=1;exitY=0.87;entryX=0.29;entryY=0;rounded=0;" parent="1" source="FzjDU5e3YEK2CfJTqNCw-357" target="FzjDU5e3YEK2CfJTqNCw-366" edge="1">
          <mxGeometry relative="1" as="geometry">
            <Array as="points">
              <mxPoint x="954" y="536" />
              <mxPoint x="954" y="1210" />
            </Array>
          </mxGeometry>
        </mxCell>
        <mxCell id="FzjDU5e3YEK2CfJTqNCw-381" value="" style="curved=1;startArrow=none;endArrow=block;exitX=0.43;exitY=0.99;entryX=0.34;entryY=0;rounded=0;" parent="1" source="FzjDU5e3YEK2CfJTqNCw-358" target="FzjDU5e3YEK2CfJTqNCw-366" edge="1">
          <mxGeometry relative="1" as="geometry">
            <Array as="points">
              <mxPoint x="974" y="536" />
              <mxPoint x="974" y="1210" />
            </Array>
          </mxGeometry>
        </mxCell>
        <mxCell id="FzjDU5e3YEK2CfJTqNCw-382" value="" style="curved=1;startArrow=none;endArrow=block;exitX=0;exitY=0.84;entryX=0.41;entryY=0;rounded=0;" parent="1" source="FzjDU5e3YEK2CfJTqNCw-359" target="FzjDU5e3YEK2CfJTqNCw-366" edge="1">
          <mxGeometry relative="1" as="geometry">
            <Array as="points">
              <mxPoint x="1005" y="1210" />
            </Array>
          </mxGeometry>
        </mxCell>
        <mxCell id="FzjDU5e3YEK2CfJTqNCw-383" value="" style="curved=1;startArrow=none;endArrow=block;exitX=0;exitY=0.65;entryX=0.703;entryY=1.002;rounded=0;entryDx=0;entryDy=0;entryPerimeter=0;" parent="1" source="FzjDU5e3YEK2CfJTqNCw-360" target="FzjDU5e3YEK2CfJTqNCw-366" edge="1">
          <mxGeometry relative="1" as="geometry">
            <Array as="points">
              <mxPoint x="1250" y="1410" />
            </Array>
          </mxGeometry>
        </mxCell>
        <mxCell id="FzjDU5e3YEK2CfJTqNCw-384" value="" style="curved=1;startArrow=none;endArrow=block;exitX=0;exitY=0.6;entryX=1;entryY=1;rounded=0;entryDx=0;entryDy=0;" parent="1" source="FzjDU5e3YEK2CfJTqNCw-361" target="FzjDU5e3YEK2CfJTqNCw-366" edge="1">
          <mxGeometry relative="1" as="geometry">
            <Array as="points">
              <mxPoint x="1450" y="1420" />
            </Array>
          </mxGeometry>
        </mxCell>
        <mxCell id="FzjDU5e3YEK2CfJTqNCw-385" value="" style="curved=1;startArrow=none;endArrow=block;exitX=0.5;exitY=1;entryX=0.57;entryY=0;rounded=0;" parent="1" source="FzjDU5e3YEK2CfJTqNCw-362" target="FzjDU5e3YEK2CfJTqNCw-366" edge="1">
          <mxGeometry relative="1" as="geometry">
            <Array as="points">
              <mxPoint x="1076" y="1210" />
            </Array>
          </mxGeometry>
        </mxCell>
        <mxCell id="FzjDU5e3YEK2CfJTqNCw-386" value="" style="curved=1;startArrow=none;endArrow=block;exitX=0;exitY=0.7;entryX=0.64;entryY=0;rounded=0;" parent="1" source="FzjDU5e3YEK2CfJTqNCw-363" target="FzjDU5e3YEK2CfJTqNCw-366" edge="1">
          <mxGeometry relative="1" as="geometry">
            <Array as="points">
              <mxPoint x="1410" y="1210" />
              <mxPoint x="1310" y="1250" />
              <mxPoint x="1107" y="1210" />
            </Array>
          </mxGeometry>
        </mxCell>
        <mxCell id="FzjDU5e3YEK2CfJTqNCw-387" value="" style="curved=1;startArrow=none;endArrow=block;exitX=0;exitY=0.62;entryX=0.69;entryY=0;rounded=0;" parent="1" source="FzjDU5e3YEK2CfJTqNCw-364" target="FzjDU5e3YEK2CfJTqNCw-366" edge="1">
          <mxGeometry relative="1" as="geometry">
            <Array as="points">
              <mxPoint x="1580" y="1450" />
              <mxPoint x="1127" y="1210" />
            </Array>
          </mxGeometry>
        </mxCell>
        <mxCell id="FzjDU5e3YEK2CfJTqNCw-388" value="" style="curved=1;startArrow=none;endArrow=block;exitX=0;exitY=0.58;entryX=1;entryY=0.5;rounded=0;entryDx=0;entryDy=0;" parent="1" source="FzjDU5e3YEK2CfJTqNCw-365" target="FzjDU5e3YEK2CfJTqNCw-366" edge="1">
          <mxGeometry relative="1" as="geometry">
            <Array as="points">
              <mxPoint x="2270" y="1200" />
              <mxPoint x="1830" y="1410" />
            </Array>
          </mxGeometry>
        </mxCell>
        <mxCell id="FzjDU5e3YEK2CfJTqNCw-389" value="" style="curved=1;startArrow=none;endArrow=block;exitX=0;exitY=0.75;entryX=0.5;entryY=-0.01;rounded=0;" parent="1" source="FzjDU5e3YEK2CfJTqNCw-357" target="FzjDU5e3YEK2CfJTqNCw-367" edge="1">
          <mxGeometry relative="1" as="geometry">
            <Array as="points">
              <mxPoint x="349" y="536" />
            </Array>
          </mxGeometry>
        </mxCell>
        <mxCell id="FzjDU5e3YEK2CfJTqNCw-390" value="" style="curved=1;startArrow=none;endArrow=block;exitX=0;exitY=0.91;entryX=0.22;entryY=-0.01;rounded=0;" parent="1" source="FzjDU5e3YEK2CfJTqNCw-357" target="FzjDU5e3YEK2CfJTqNCw-368" edge="1">
          <mxGeometry relative="1" as="geometry">
            <Array as="points">
              <mxPoint x="493" y="536" />
            </Array>
          </mxGeometry>
        </mxCell>
        <mxCell id="FzjDU5e3YEK2CfJTqNCw-391" value="" style="curved=1;startArrow=none;endArrow=block;exitX=0.55;exitY=0.99;entryX=0.19;entryY=-0.01;rounded=0;" parent="1" source="FzjDU5e3YEK2CfJTqNCw-357" target="FzjDU5e3YEK2CfJTqNCw-369" edge="1">
          <mxGeometry relative="1" as="geometry">
            <Array as="points">
              <mxPoint x="729" y="536" />
            </Array>
          </mxGeometry>
        </mxCell>
        <mxCell id="FzjDU5e3YEK2CfJTqNCw-392" value="" style="curved=1;startArrow=none;endArrow=block;exitX=0;exitY=0.68;entryX=0.8;entryY=-0.01;rounded=0;" parent="1" source="FzjDU5e3YEK2CfJTqNCw-358" target="FzjDU5e3YEK2CfJTqNCw-367" edge="1">
          <mxGeometry relative="1" as="geometry">
            <Array as="points">
              <mxPoint x="690" y="530" />
              <mxPoint x="473" y="536" />
            </Array>
          </mxGeometry>
        </mxCell>
        <mxCell id="FzjDU5e3YEK2CfJTqNCw-393" value="" style="curved=1;startArrow=none;endArrow=block;exitX=0;exitY=0.83;entryX=0.77;entryY=-0.01;rounded=0;" parent="1" source="FzjDU5e3YEK2CfJTqNCw-358" target="FzjDU5e3YEK2CfJTqNCw-368" edge="1">
          <mxGeometry relative="1" as="geometry">
            <Array as="points">
              <mxPoint x="709" y="536" />
            </Array>
          </mxGeometry>
        </mxCell>
        <mxCell id="FzjDU5e3YEK2CfJTqNCw-394" value="" style="curved=1;startArrow=none;endArrow=block;exitX=0.21;exitY=0.99;entryX=0.68;entryY=-0.01;rounded=0;" parent="1" source="FzjDU5e3YEK2CfJTqNCw-358" target="FzjDU5e3YEK2CfJTqNCw-369" edge="1">
          <mxGeometry relative="1" as="geometry">
            <Array as="points">
              <mxPoint x="887" y="536" />
            </Array>
          </mxGeometry>
        </mxCell>
        <mxCell id="FzjDU5e3YEK2CfJTqNCw-395" value="" style="curved=1;startArrow=none;endArrow=block;exitX=0.92;exitY=-0.016;entryX=0;entryY=0.31;rounded=0;exitDx=0;exitDy=0;exitPerimeter=0;" parent="1" source="FzjDU5e3YEK2CfJTqNCw-357" target="FzjDU5e3YEK2CfJTqNCw-370" edge="1">
          <mxGeometry relative="1" as="geometry">
            <Array as="points">
              <mxPoint x="900" y="360" />
            </Array>
          </mxGeometry>
        </mxCell>
        <mxCell id="FzjDU5e3YEK2CfJTqNCw-396" value="" style="curved=1;startArrow=none;endArrow=block;exitX=1;exitY=0.58;entryX=1;entryY=0.26;rounded=0;" parent="1" source="FzjDU5e3YEK2CfJTqNCw-358" target="FzjDU5e3YEK2CfJTqNCw-370" edge="1">
          <mxGeometry relative="1" as="geometry">
            <Array as="points">
              <mxPoint x="2190" y="536" />
            </Array>
          </mxGeometry>
        </mxCell>
        <mxCell id="FzjDU5e3YEK2CfJTqNCw-397" value="Needs E-Sign" style="curved=1;startArrow=none;endArrow=block;exitX=0.5;exitY=0.99;entryX=0.5;entryY=-0.01;rounded=0;" parent="1" source="FzjDU5e3YEK2CfJTqNCw-370" target="FzjDU5e3YEK2CfJTqNCw-371" edge="1">
          <mxGeometry relative="1" as="geometry">
            <Array as="points" />
          </mxGeometry>
        </mxCell>
        <mxCell id="FzjDU5e3YEK2CfJTqNCw-398" value="OTP Required" style="curved=1;startArrow=none;endArrow=block;exitX=0.5;exitY=0.99;entryX=0.5;entryY=-0.01;rounded=0;" parent="1" source="FzjDU5e3YEK2CfJTqNCw-371" target="FzjDU5e3YEK2CfJTqNCw-372" edge="1">
          <mxGeometry relative="1" as="geometry">
            <Array as="points" />
          </mxGeometry>
        </mxCell>
        <mxCell id="FzjDU5e3YEK2CfJTqNCw-399" value="Confirm &amp; Approve" style="curved=1;startArrow=none;endArrow=block;exitX=0.5;exitY=0.99;entryX=0.5;entryY=-0.01;rounded=0;" parent="1" source="FzjDU5e3YEK2CfJTqNCw-372" target="FzjDU5e3YEK2CfJTqNCw-373" edge="1">
          <mxGeometry relative="1" as="geometry">
            <Array as="points" />
          </mxGeometry>
        </mxCell>
        <mxCell id="FzjDU5e3YEK2CfJTqNCw-400" value="" style="curved=1;startArrow=none;endArrow=block;exitX=0.5;exitY=0.99;entryX=0.5;entryY=-0.01;rounded=0;" parent="1" source="FzjDU5e3YEK2CfJTqNCw-373" target="FzjDU5e3YEK2CfJTqNCw-374" edge="1">
          <mxGeometry relative="1" as="geometry">
            <Array as="points" />
          </mxGeometry>
        </mxCell>
        <mxCell id="FzjDU5e3YEK2CfJTqNCw-401" value="" style="curved=1;startArrow=none;endArrow=block;exitX=0;exitY=0.71;entryX=0.5;entryY=0;rounded=0;" parent="1" source="FzjDU5e3YEK2CfJTqNCw-374" target="FzjDU5e3YEK2CfJTqNCw-359" edge="1">
          <mxGeometry relative="1" as="geometry">
            <Array as="points">
              <mxPoint x="1326" y="1109" />
            </Array>
          </mxGeometry>
        </mxCell>
        <mxCell id="FzjDU5e3YEK2CfJTqNCw-402" value="" style="curved=1;startArrow=none;endArrow=block;exitX=0.45;exitY=0.99;entryX=0.5;entryY=0;rounded=0;" parent="1" source="FzjDU5e3YEK2CfJTqNCw-374" target="FzjDU5e3YEK2CfJTqNCw-360" edge="1">
          <mxGeometry relative="1" as="geometry">
            <Array as="points">
              <mxPoint x="1763" y="1109" />
            </Array>
          </mxGeometry>
        </mxCell>
        <mxCell id="FzjDU5e3YEK2CfJTqNCw-403" value="" style="curved=1;startArrow=none;endArrow=block;exitX=1;exitY=0.93;entryX=0.5;entryY=0;rounded=0;" parent="1" source="FzjDU5e3YEK2CfJTqNCw-374" target="FzjDU5e3YEK2CfJTqNCw-361" edge="1">
          <mxGeometry relative="1" as="geometry">
            <Array as="points">
              <mxPoint x="2020" y="1109" />
            </Array>
          </mxGeometry>
        </mxCell>
        <mxCell id="FzjDU5e3YEK2CfJTqNCw-404" value="" style="curved=1;startArrow=none;endArrow=block;exitX=0.95;exitY=0.99;rounded=0;" parent="1" source="FzjDU5e3YEK2CfJTqNCw-358" edge="1">
          <mxGeometry relative="1" as="geometry">
            <Array as="points">
              <mxPoint x="1178" y="536" />
              <mxPoint x="1178" y="1210" />
            </Array>
            <mxPoint x="1470" y="1250" as="targetPoint" />
          </mxGeometry>
        </mxCell>
        <mxCell id="FzjDU5e3YEK2CfJTqNCw-405" value="" style="curved=1;startArrow=none;endArrow=block;exitX=1;exitY=0.57;entryX=0.39;entryY=0;rounded=0;" parent="1" source="FzjDU5e3YEK2CfJTqNCw-358" target="FzjDU5e3YEK2CfJTqNCw-376" edge="1">
          <mxGeometry relative="1" as="geometry">
            <Array as="points">
              <mxPoint x="1770" y="450" />
              <mxPoint x="2381" y="536" />
              <mxPoint x="2381" y="1210" />
            </Array>
          </mxGeometry>
        </mxCell>
        <mxCell id="FzjDU5e3YEK2CfJTqNCw-406" value="" style="curved=1;startArrow=none;endArrow=block;exitX=0.5;exitY=1;entryX=0;entryY=0.11;rounded=0;" parent="1" source="FzjDU5e3YEK2CfJTqNCw-359" target="FzjDU5e3YEK2CfJTqNCw-375" edge="1">
          <mxGeometry relative="1" as="geometry">
            <Array as="points">
              <mxPoint x="1326" y="1210" />
            </Array>
          </mxGeometry>
        </mxCell>
        <mxCell id="FzjDU5e3YEK2CfJTqNCw-407" value="" style="curved=1;startArrow=none;endArrow=block;exitX=1;exitY=0.6;entryX=0.44;entryY=0;rounded=0;" parent="1" source="FzjDU5e3YEK2CfJTqNCw-359" target="FzjDU5e3YEK2CfJTqNCw-376" edge="1">
          <mxGeometry relative="1" as="geometry">
            <Array as="points">
              <mxPoint x="1900" y="1250" />
              <mxPoint x="2401" y="1210" />
            </Array>
          </mxGeometry>
        </mxCell>
        <mxCell id="FzjDU5e3YEK2CfJTqNCw-408" value="" style="curved=1;startArrow=none;endArrow=block;exitX=0.23;exitY=1;entryX=0.72;entryY=0;rounded=0;" parent="1" source="FzjDU5e3YEK2CfJTqNCw-360" target="FzjDU5e3YEK2CfJTqNCw-375" edge="1">
          <mxGeometry relative="1" as="geometry">
            <Array as="points">
              <mxPoint x="1645" y="1210" />
            </Array>
          </mxGeometry>
        </mxCell>
        <mxCell id="FzjDU5e3YEK2CfJTqNCw-409" value="" style="curved=1;startArrow=none;endArrow=block;exitX=1;exitY=0.67;entryX=0.5;entryY=0;rounded=0;" parent="1" source="FzjDU5e3YEK2CfJTqNCw-360" target="FzjDU5e3YEK2CfJTqNCw-376" edge="1">
          <mxGeometry relative="1" as="geometry">
            <Array as="points">
              <mxPoint x="1920" y="1220" />
              <mxPoint x="2421" y="1210" />
            </Array>
          </mxGeometry>
        </mxCell>
        <mxCell id="FzjDU5e3YEK2CfJTqNCw-410" value="" style="curved=1;startArrow=none;endArrow=block;entryX=1;entryY=0.08;rounded=0;exitX=0.054;exitY=0.978;exitDx=0;exitDy=0;exitPerimeter=0;" parent="1" source="FzjDU5e3YEK2CfJTqNCw-361" target="FzjDU5e3YEK2CfJTqNCw-375" edge="1">
          <mxGeometry relative="1" as="geometry">
            <Array as="points">
              <mxPoint x="1784" y="1210" />
            </Array>
            <mxPoint x="1930" y="1170" as="sourcePoint" />
          </mxGeometry>
        </mxCell>
        <mxCell id="FzjDU5e3YEK2CfJTqNCw-411" value="" style="curved=1;startArrow=none;endArrow=block;exitX=1;exitY=0.69;entryX=0.77;entryY=0;rounded=0;" parent="1" source="FzjDU5e3YEK2CfJTqNCw-361" target="FzjDU5e3YEK2CfJTqNCw-376" edge="1">
          <mxGeometry relative="1" as="geometry">
            <Array as="points">
              <mxPoint x="2310" y="1200" />
              <mxPoint x="2521" y="1210" />
            </Array>
          </mxGeometry>
        </mxCell>
        <mxCell id="FzjDU5e3YEK2CfJTqNCw-412" value="" style="curved=1;startArrow=none;endArrow=block;exitX=1;exitY=0.64;rounded=0;" parent="1" source="FzjDU5e3YEK2CfJTqNCw-362" edge="1">
          <mxGeometry relative="1" as="geometry">
            <Array as="points">
              <mxPoint x="1310" y="1240" />
            </Array>
            <mxPoint x="1480" y="1260" as="targetPoint" />
          </mxGeometry>
        </mxCell>
        <mxCell id="FzjDU5e3YEK2CfJTqNCw-413" value="" style="curved=1;startArrow=none;endArrow=block;exitX=0.75;exitY=1;rounded=0;exitDx=0;exitDy=0;" parent="1" source="FzjDU5e3YEK2CfJTqNCw-363" edge="1">
          <mxGeometry relative="1" as="geometry">
            <mxPoint x="1580" y="1230" as="targetPoint" />
          </mxGeometry>
        </mxCell>
        <mxCell id="FzjDU5e3YEK2CfJTqNCw-414" value="" style="curved=1;startArrow=none;endArrow=block;exitX=1;exitY=0.98;entryX=0.83;entryY=0;rounded=0;" parent="1" source="FzjDU5e3YEK2CfJTqNCw-364" target="FzjDU5e3YEK2CfJTqNCw-376" edge="1">
          <mxGeometry relative="1" as="geometry">
            <Array as="points">
              <mxPoint x="2541" y="1210" />
            </Array>
          </mxGeometry>
        </mxCell>
        <mxCell id="FzjDU5e3YEK2CfJTqNCw-415" value="" style="curved=1;startArrow=none;endArrow=block;exitX=0.25;exitY=1;entryX=0.5;entryY=0;rounded=0;" parent="1" source="FzjDU5e3YEK2CfJTqNCw-365" target="FzjDU5e3YEK2CfJTqNCw-377" edge="1">
          <mxGeometry relative="1" as="geometry">
            <Array as="points">
              <mxPoint x="2641" y="1210" />
            </Array>
          </mxGeometry>
        </mxCell>
        <mxCell id="FzjDU5e3YEK2CfJTqNCw-416" value="" style="curved=1;startArrow=none;endArrow=block;exitX=0.67;exitY=1;entryX=0.5;entryY=0;rounded=0;" parent="1" source="FzjDU5e3YEK2CfJTqNCw-365" target="FzjDU5e3YEK2CfJTqNCw-378" edge="1">
          <mxGeometry relative="1" as="geometry">
            <Array as="points">
              <mxPoint x="2867" y="1210" />
            </Array>
          </mxGeometry>
        </mxCell>
        <mxCell id="FzjDU5e3YEK2CfJTqNCw-417" value="" style="curved=1;startArrow=none;endArrow=block;exitX=1.01;exitY=0.92;entryX=0.5;entryY=0;rounded=0;" parent="1" source="FzjDU5e3YEK2CfJTqNCw-365" target="FzjDU5e3YEK2CfJTqNCw-379" edge="1">
          <mxGeometry relative="1" as="geometry">
            <Array as="points">
              <mxPoint x="3098" y="1210" />
            </Array>
          </mxGeometry>
        </mxCell>
      </root>
    </mxGraphModel>
  </diagram>
</mxfile>
